<svg id="color" enable-background="new 0 0 24 24" height="512" viewBox="0 0 24 24" width="512" xmlns="http://www.w3.org/2000/svg"><path d="m17.25 17c.31 0 .588-.19.7-.479.111-.289.034-.617-.195-.825l-2.75-2.5c-.286-.26-.723-.26-1.009 0l-2.75 2.5c-.229.208-.307.536-.195.825.111.289.389.479.699.479h1.75v6c0 .553.448 1 1 1s1-.447 1-1v-6z" fill="#607d8b"/><path d="m14.5 13c-.181 0-.361.065-.504.195l-2.75 2.5c-.229.208-.307.536-.195.825.111.29.389.48.699.48h1.75v6c0 .553.448 1 1 1z" fill="#546d79"/><path d="m0 10.5v4c0 2.43 6.28 2.5 7 2.5.24 0 1.07-.01 2.09-.11-.24-.96.07-2 .81-2.68l2.01-1.83.74-.67c.36-.32.77-.53 1.21-.63l.14-.04v-.54z" fill="#ffc107"/><path d="m0 6.5v4c0 2.43 6.28 2.5 7 2.5.44 0 3.01-.03 4.91-.62l.74-.67c.36-.32.77-.53 1.21-.63.09-.17.14-.37.14-.58v-4z" fill="#ffd54f"/><path d="m7 9c-.717 0-7-.07-7-2.5v-4h14v4c0 2.43-6.283 2.5-7 2.5z" fill="#ffc107"/><path d="m7 5c-.717 0-7-.07-7-2.5 0-2.43 6.283-2.5 7-2.5s7 .07 7 2.5-6.283 2.5-7 2.5z" fill="#ffd54f"/><path d="m0 10.5v4c0 2.43 6.28 2.5 7 2.5v-4c-.72 0-7-.07-7-2.5z" fill="#dea806"/><path d="m0 6.5v4c0 2.43 6.28 2.5 7 2.5v-4c-.717 0-7-.07-7-2.5z" fill="#deb945"/><path d="m0 2.5v4c0 2.43 6.283 2.5 7 2.5v-4c-.717 0-7-.07-7-2.5z" fill="#dea806"/><path d="m7 0c-.717 0-7 .07-7 2.5 0 2.43 6.283 2.5 7 2.5z" fill="#deb945"/><path d="m23.95 20.48c-.112-.29-.39-.48-.7-.48h-1.75v-6c0-.553-.448-1-1-1s-1 .447-1 1v6h-1.75c-.31 0-.588.19-.7.48-.111.289-.034.617.195.825l2.75 2.5c.144.131.324.195.505.195s.361-.064.504-.195l2.75-2.5c.23-.208.307-.536.196-.825z" fill="#607d8b"/><path d="m20.5 13c-.552 0-1 .447-1 1v6h-1.75c-.31 0-.588.19-.7.48-.111.289-.034.617.195.825l2.75 2.5c.144.131.324.195.505.195z" fill="#546d79"/></svg>